<mxfile host="app.diagrams.net" modified="2022-09-24T12:48:23.130Z" agent="5.0 (Windows NT 10.0; Win64; x64) AppleWebKit/537.36 (KHTML, like Gecko) Chrome/105.0.0.0 Safari/537.36" etag="xCYiHSQ31QIwUDk8eM3a" version="20.3.6" type="github">
  <diagram id="pIju_jE0NJaUfE_tWyWQ" name="Page-1">
    <mxGraphModel dx="1384" dy="761" grid="1" gridSize="10" guides="1" tooltips="1" connect="1" arrows="1" fold="1" page="1" pageScale="1" pageWidth="850" pageHeight="1100" math="0" shadow="0">
      <root>
        <mxCell id="0" />
        <mxCell id="1" parent="0" />
        <mxCell id="DRygwwbB9dFPT0gsxtWy-5" style="edgeStyle=orthogonalEdgeStyle;rounded=0;orthogonalLoop=1;jettySize=auto;html=1;exitX=0.5;exitY=1;exitDx=0;exitDy=0;entryX=0.5;entryY=0;entryDx=0;entryDy=0;" edge="1" parent="1" source="DRygwwbB9dFPT0gsxtWy-1" target="DRygwwbB9dFPT0gsxtWy-3">
          <mxGeometry relative="1" as="geometry" />
        </mxCell>
        <mxCell id="DRygwwbB9dFPT0gsxtWy-1" value="Start" style="rounded=1;whiteSpace=wrap;html=1;" vertex="1" parent="1">
          <mxGeometry x="140" y="10" width="120" height="60" as="geometry" />
        </mxCell>
        <mxCell id="DRygwwbB9dFPT0gsxtWy-7" style="edgeStyle=orthogonalEdgeStyle;rounded=0;orthogonalLoop=1;jettySize=auto;html=1;exitX=0;exitY=0.5;exitDx=0;exitDy=0;startArrow=none;" edge="1" parent="1" source="DRygwwbB9dFPT0gsxtWy-13">
          <mxGeometry relative="1" as="geometry">
            <mxPoint x="80" y="280" as="targetPoint" />
          </mxGeometry>
        </mxCell>
        <mxCell id="DRygwwbB9dFPT0gsxtWy-8" style="edgeStyle=orthogonalEdgeStyle;rounded=0;orthogonalLoop=1;jettySize=auto;html=1;exitX=1;exitY=0.5;exitDx=0;exitDy=0;" edge="1" parent="1" source="DRygwwbB9dFPT0gsxtWy-3">
          <mxGeometry relative="1" as="geometry">
            <mxPoint x="360" y="300" as="targetPoint" />
          </mxGeometry>
        </mxCell>
        <mxCell id="DRygwwbB9dFPT0gsxtWy-3" value="Is clearly divisible by 4&lt;br&gt;" style="rhombus;whiteSpace=wrap;html=1;" vertex="1" parent="1">
          <mxGeometry x="140" y="140" width="140" height="120" as="geometry" />
        </mxCell>
        <mxCell id="DRygwwbB9dFPT0gsxtWy-9" value="Leap" style="rounded=1;whiteSpace=wrap;html=1;" vertex="1" parent="1">
          <mxGeometry x="180" y="480" width="120" height="60" as="geometry" />
        </mxCell>
        <mxCell id="DRygwwbB9dFPT0gsxtWy-10" value="Not Leap" style="rounded=1;whiteSpace=wrap;html=1;" vertex="1" parent="1">
          <mxGeometry x="30" y="280" width="120" height="60" as="geometry" />
        </mxCell>
        <mxCell id="DRygwwbB9dFPT0gsxtWy-21" style="edgeStyle=orthogonalEdgeStyle;rounded=0;orthogonalLoop=1;jettySize=auto;html=1;exitX=0.5;exitY=1;exitDx=0;exitDy=0;startArrow=none;" edge="1" parent="1" source="DRygwwbB9dFPT0gsxtWy-25">
          <mxGeometry relative="1" as="geometry">
            <mxPoint x="410" y="630" as="targetPoint" />
          </mxGeometry>
        </mxCell>
        <mxCell id="DRygwwbB9dFPT0gsxtWy-22" style="edgeStyle=orthogonalEdgeStyle;rounded=0;orthogonalLoop=1;jettySize=auto;html=1;" edge="1" parent="1" source="DRygwwbB9dFPT0gsxtWy-11">
          <mxGeometry relative="1" as="geometry">
            <mxPoint x="730" y="620" as="targetPoint" />
          </mxGeometry>
        </mxCell>
        <mxCell id="DRygwwbB9dFPT0gsxtWy-11" value="is clearly divisible by 400" style="rhombus;whiteSpace=wrap;html=1;" vertex="1" parent="1">
          <mxGeometry x="520" y="490" width="80" height="80" as="geometry" />
        </mxCell>
        <mxCell id="DRygwwbB9dFPT0gsxtWy-16" style="edgeStyle=orthogonalEdgeStyle;rounded=0;orthogonalLoop=1;jettySize=auto;html=1;startArrow=none;" edge="1" parent="1" source="DRygwwbB9dFPT0gsxtWy-18">
          <mxGeometry relative="1" as="geometry">
            <mxPoint x="240" y="480" as="targetPoint" />
          </mxGeometry>
        </mxCell>
        <mxCell id="DRygwwbB9dFPT0gsxtWy-17" style="edgeStyle=orthogonalEdgeStyle;rounded=0;orthogonalLoop=1;jettySize=auto;html=1;" edge="1" parent="1" source="DRygwwbB9dFPT0gsxtWy-12">
          <mxGeometry relative="1" as="geometry">
            <mxPoint x="560" y="490" as="targetPoint" />
          </mxGeometry>
        </mxCell>
        <mxCell id="DRygwwbB9dFPT0gsxtWy-12" value="Is clearly divisible by&amp;nbsp;&lt;br&gt;100" style="rhombus;whiteSpace=wrap;html=1;" vertex="1" parent="1">
          <mxGeometry x="290" y="300" width="140" height="140" as="geometry" />
        </mxCell>
        <mxCell id="DRygwwbB9dFPT0gsxtWy-13" value="No" style="text;html=1;resizable=0;autosize=1;align=center;verticalAlign=middle;points=[];fillColor=none;strokeColor=none;rounded=0;" vertex="1" parent="1">
          <mxGeometry x="70" y="185" width="40" height="30" as="geometry" />
        </mxCell>
        <mxCell id="DRygwwbB9dFPT0gsxtWy-14" value="" style="edgeStyle=orthogonalEdgeStyle;rounded=0;orthogonalLoop=1;jettySize=auto;html=1;exitX=0;exitY=0.5;exitDx=0;exitDy=0;endArrow=none;" edge="1" parent="1" source="DRygwwbB9dFPT0gsxtWy-3" target="DRygwwbB9dFPT0gsxtWy-13">
          <mxGeometry relative="1" as="geometry">
            <mxPoint x="80" y="280" as="targetPoint" />
            <mxPoint x="140" y="200" as="sourcePoint" />
          </mxGeometry>
        </mxCell>
        <mxCell id="DRygwwbB9dFPT0gsxtWy-15" value="Yes" style="text;html=1;resizable=0;autosize=1;align=center;verticalAlign=middle;points=[];fillColor=none;strokeColor=none;rounded=0;" vertex="1" parent="1">
          <mxGeometry x="300" y="185" width="40" height="30" as="geometry" />
        </mxCell>
        <mxCell id="DRygwwbB9dFPT0gsxtWy-18" value="No" style="text;html=1;resizable=0;autosize=1;align=center;verticalAlign=middle;points=[];fillColor=none;strokeColor=none;rounded=0;" vertex="1" parent="1">
          <mxGeometry x="230" y="365" width="40" height="30" as="geometry" />
        </mxCell>
        <mxCell id="DRygwwbB9dFPT0gsxtWy-19" value="" style="edgeStyle=orthogonalEdgeStyle;rounded=0;orthogonalLoop=1;jettySize=auto;html=1;endArrow=none;" edge="1" parent="1" source="DRygwwbB9dFPT0gsxtWy-12" target="DRygwwbB9dFPT0gsxtWy-18">
          <mxGeometry relative="1" as="geometry">
            <mxPoint x="240" y="480" as="targetPoint" />
            <mxPoint x="290" y="370" as="sourcePoint" />
          </mxGeometry>
        </mxCell>
        <mxCell id="DRygwwbB9dFPT0gsxtWy-20" value="Yes" style="text;html=1;resizable=0;autosize=1;align=center;verticalAlign=middle;points=[];fillColor=none;strokeColor=none;rounded=0;" vertex="1" parent="1">
          <mxGeometry x="470" y="355" width="40" height="30" as="geometry" />
        </mxCell>
        <mxCell id="DRygwwbB9dFPT0gsxtWy-23" value="Not Leap" style="rounded=1;whiteSpace=wrap;html=1;" vertex="1" parent="1">
          <mxGeometry x="360" y="640" width="120" height="60" as="geometry" />
        </mxCell>
        <mxCell id="DRygwwbB9dFPT0gsxtWy-24" value="Leap" style="rounded=1;whiteSpace=wrap;html=1;" vertex="1" parent="1">
          <mxGeometry x="680" y="620" width="120" height="60" as="geometry" />
        </mxCell>
        <mxCell id="DRygwwbB9dFPT0gsxtWy-25" value="No" style="text;html=1;resizable=0;autosize=1;align=center;verticalAlign=middle;points=[];fillColor=none;strokeColor=none;rounded=0;" vertex="1" parent="1">
          <mxGeometry x="460" y="585" width="40" height="30" as="geometry" />
        </mxCell>
        <mxCell id="DRygwwbB9dFPT0gsxtWy-26" value="" style="edgeStyle=orthogonalEdgeStyle;rounded=0;orthogonalLoop=1;jettySize=auto;html=1;exitX=0.5;exitY=1;exitDx=0;exitDy=0;endArrow=none;" edge="1" parent="1" source="DRygwwbB9dFPT0gsxtWy-11" target="DRygwwbB9dFPT0gsxtWy-25">
          <mxGeometry relative="1" as="geometry">
            <mxPoint x="410" y="630" as="targetPoint" />
            <mxPoint x="560" y="570" as="sourcePoint" />
          </mxGeometry>
        </mxCell>
        <mxCell id="DRygwwbB9dFPT0gsxtWy-27" value="Yes" style="text;html=1;resizable=0;autosize=1;align=center;verticalAlign=middle;points=[];fillColor=none;strokeColor=none;rounded=0;" vertex="1" parent="1">
          <mxGeometry x="640" y="515" width="40" height="30" as="geometry" />
        </mxCell>
      </root>
    </mxGraphModel>
  </diagram>
</mxfile>
